<?xml version="1.0" encoding="UTF-8"?>
<svg id="svg3036" xmlns="http://www.w3.org/2000/svg" xmlns:svg="http://www.w3.org/2000/svg" xmlns:sodipodi="http://sodipodi.sourceforge.net/DTD/sodipodi-0.dtd" xmlns:rdf="http://www.w3.org/1999/02/22-rdf-syntax-ns#" xmlns:inkscape="http://www.inkscape.org/namespaces/inkscape" xmlns:dc="http://purl.org/dc/elements/1.1/" xmlns:cc="http://creativecommons.org/ns#" version="1.1" viewBox="0 0 457.4 652.7">
  <!-- Generator: Adobe Illustrator 29.5.1, SVG Export Plug-In . SVG Version: 2.1.0 Build 141)  -->
  <defs>
    <style>
      .st0, .st1 {
        fill: #fecf33;
      }

      .st2, .st1 {
        fill-rule: evenodd;
      }
    </style>
  </defs>
  <sodipodi:namedview id="base" bordercolor="#666666" borderopacity="1.0" fit-margin-bottom="0" fit-margin-left="0" fit-margin-right="0" fit-margin-top="0" inkscape:current-layer="layer1" inkscape:cx="260.69729" inkscape:cy="323.32547" inkscape:document-units="px" inkscape:pageopacity="0.0" inkscape:pageshadow="2" inkscape:window-height="848" inkscape:window-maximized="1" inkscape:window-width="1600" inkscape:window-x="-8" inkscape:window-y="-8" inkscape:zoom="1" pagecolor="#ffffff" showgrid="false"/>
  <g id="layer1" inkscape:groupmode="layer" inkscape:label="Layer 1">
    <path id="path3003" class="st2" d="M0,457.5h457.4v195.2H0v-195.2h0Z" inkscape:connector-curvature="0"/>
    <path id="path3894" class="st1" d="M0,0h457.4v457.4H0V0h0Z" inkscape:connector-curvature="0"/>
    <path id="path3898" class="st2" d="M228.7,32.7c108,0,196.1,88.1,196.1,196s-88.1,196-196.1,196S32.6,336.7,32.6,228.7,120.7,32.7,228.7,32.7" inkscape:connector-curvature="0"/>
    <path id="path3906" class="st1" d="M317.9,74.7l-89.3,154.1-89.2-154.1h178.5Z" inkscape:connector-curvature="0"/>
    <path id="path3914" class="st1" d="M228.6,228.9l-89.3,154.1L50.1,228.9h178.5Z" inkscape:connector-curvature="0"/>
    <path id="path3922" class="st1" d="M407.3,228.9l-89.2,154.1-89.2-154.1h178.5Z" inkscape:connector-curvature="0"/>
  </g>
  <g>
    <path class="st0" d="M17.5,526.8v-9.5h10.2v9.5h-10.2Z"/>
    <path class="st0" d="M31.5,471.1h15.4c2.4,0,4.3.6,5.7,1.8,1.3,1.2,2.2,3,2.7,5.2.5,2.2.7,5.1.7,8.5s-.4,5.6-1.1,7.4c-.7,1.8-2,3-3.8,3.7,1.5.3,2.6,1.2,3.3,2.5.7,1.3,1,3.2,1,5.4v21.1h-9.9v-21.8c0-1.6-.3-2.5-.8-3-.5-.4-1.5-.6-3-.6v25.4h-10.1v-55.7ZM44.1,491.7c1.4,0,2.1-1.7,2.1-5.1s0-2.6-.2-3.3c-.1-.7-.3-1.2-.6-1.5-.3-.3-.8-.4-1.3-.4h-2.3v10.3h2.4Z"/>
    <path class="st0" d="M62.2,523.5c-2.2-2.5-3.3-6-3.3-10.5v-25.7c0-5.5,1-9.7,3-12.5,2-2.8,5.1-4.2,9.3-4.2s6.7,1.1,8.9,3.4c2.3,2.2,3.4,5.5,3.4,9.7v9.6h-10v-8.2c0-1.6-.2-2.7-.5-3.3-.4-.6-1-.9-1.8-.9s-1.5.3-1.8,1c-.3.7-.5,1.7-.5,3v27.9c0,1.5.2,2.5.6,3.2.4.7,1,1,1.8,1,1.6,0,2.3-1.4,2.3-4.2v-10h10.1v10.5c0,9.3-4.2,14-12.7,14s-6.6-1.3-8.8-3.8Z"/>
    <path class="st0" d="M91.3,526.8v-45h-5.9v-10.7h21.9v10.7h-5.9v45h-10Z"/>
    <path class="st0" d="M110.1,471.1h15.4c2.4,0,4.3.6,5.7,1.8,1.3,1.2,2.2,3,2.7,5.2.5,2.2.7,5.1.7,8.5s-.4,5.6-1.1,7.4c-.7,1.8-2,3-3.8,3.7,1.5.3,2.6,1.2,3.3,2.5.7,1.3,1,3.2,1,5.4v21.1h-9.9v-21.8c0-1.6-.3-2.5-.8-3-.5-.4-1.5-.6-3-.6v25.4h-10.1v-55.7ZM122.7,491.7c1.4,0,2.1-1.7,2.1-5.1s0-2.6-.2-3.3c-.1-.7-.3-1.2-.6-1.5-.3-.3-.8-.4-1.3-.4h-2.3v10.3h2.4Z"/>
    <path class="st0" d="M137.9,526.8v-55.7h9.9v22.3l4.7-22.3h10.1l-5.6,25.5,6.8,30.2h-10.4l-5.5-27v27h-10Z"/>
    <path class="st0" d="M183.4,526.8v-45h-5.9v-10.7h21.9v10.7h-5.9v45h-10Z"/>
    <path class="st0" d="M202.2,471.1h15.4c2.4,0,4.3.6,5.7,1.8s2.2,3,2.7,5.2c.5,2.2.7,5.1.7,8.5s-.4,5.6-1.1,7.4c-.7,1.8-2,3-3.8,3.7,1.5.3,2.6,1.2,3.3,2.5.7,1.3,1,3.2,1,5.4v21.1h-9.9v-21.8c0-1.6-.3-2.5-.8-3-.5-.4-1.5-.6-3-.6v25.4h-10.1v-55.7ZM214.8,491.7c1.4,0,2.1-1.7,2.1-5.1s0-2.6-.2-3.3c-.1-.7-.3-1.2-.6-1.5-.3-.3-.8-.4-1.3-.4h-2.3v10.3h2.4Z"/>
    <path class="st0" d="M228.6,526.8l4.8-55.7h17l4.8,55.7h-9.5l-.7-9h-6.1l-.6,9h-9.7ZM239.7,508.9h4.5l-2.2-28.3h-.5l-1.9,28.3Z"/>
    <path class="st0" d="M261.2,523.5c-2.2-2.5-3.3-6-3.3-10.5v-25.7c0-5.5,1-9.7,3-12.5,2-2.8,5.1-4.2,9.3-4.2s6.7,1.1,8.9,3.4c2.3,2.2,3.4,5.5,3.4,9.7v9.6h-10v-8.2c0-1.6-.2-2.7-.5-3.3-.4-.6-1-.9-1.8-.9s-1.5.3-1.8,1c-.3.7-.5,1.7-.5,3v27.9c0,1.5.2,2.5.6,3.2s1,1,1.8,1c1.6,0,2.3-1.4,2.3-4.2v-10h10.1v10.5c0,9.3-4.2,14-12.7,14s-6.6-1.3-8.8-3.8Z"/>
    <path class="st0" d="M285.9,526.8v-55.7h9.9v22.3l4.7-22.3h10.1l-5.6,25.5,6.8,30.2h-10.4l-5.5-27v27h-10Z"/>
    <path class="st0" d="M327.1,526.8v-55.7h20.1v10.8h-10v8.9h9.4v10.7h-9.4v25.3h-10.1Z"/>
    <path class="st0" d="M349.9,526.8v-55.7h9.7v55.7h-9.7Z"/>
    <path class="st0" d="M362.1,526.8l5.4-29.6-4.3-26.2h9.8l2.6,19.2,2.3-19.2h9.9l-4.3,26.2,5.4,29.6h-10.1l-3.1-21.8-3.2,21.8h-10.2Z"/>
    <path class="st0" d="M391.8,526.8v-55.7h20.1v10.8h-9.9v10.8h9.4v10.5h-9.4v12.8h10.5v10.8h-20.7Z"/>
    <path class="st0" d="M415.9,471.1h15.4c2.4,0,4.3.6,5.7,1.8s2.2,3,2.7,5.2c.5,2.2.7,5.1.7,8.5s-.4,5.6-1.1,7.4c-.7,1.8-2,3-3.8,3.7,1.5.3,2.6,1.2,3.3,2.5.7,1.3,1,3.2,1,5.4v21.1h-9.9v-21.8c0-1.6-.3-2.5-.8-3-.5-.4-1.5-.6-3-.6v25.4h-10.1v-55.7ZM428.5,491.7c1.4,0,2.1-1.7,2.1-5.1s0-2.6-.2-3.3c-.1-.7-.3-1.2-.6-1.5-.3-.3-.8-.4-1.3-.4h-2.3v10.3h2.4Z"/>
  </g>
</svg>
